<svg xmlns="http://www.w3.org/2000/svg" xmlns:xlink="http://www.w3.org/1999/xlink" id="Capa_2" x="0px" y="0px" viewBox="536 -566 1451.9 1100.9" style="enable-background:new 536 -566 1451.9 1100.9;" xml:space="preserve">
<style type="text/css">
	.bg-hexagon{fill:#DFECF6;}
</style>
<g>
	<g>
		<circle class="bg-hexagon" cx="582.8" cy="-450" r="3.8"></circle>
		<circle class="bg-hexagon" cx="622.5" cy="-473.3" r="3.8"></circle>
		
			<rect x="619.5" y="-462.5" transform="matrix(-0.8651 -0.5016 0.5016 -0.8651 1429.0955 -539.6371)" class="bg-hexagon" width="45" height="1"></rect>
		
			<rect x="579.4" y="-461.9" transform="matrix(-0.8665 0.4992 -0.4992 -0.8665 893.0857 -1161.668)" class="bg-hexagon" width="45" height="1"></rect>
		
			<rect x="562.9" y="-427.6" transform="matrix(-2.044091e-003 1 -1 -2.044091e-003 156.9064 -1010.7584)" class="bg-hexagon" width="39.9" height="1"></rect>
	</g>
</g>
<g>
	<g>
		<circle class="bg-hexagon" cx="662.7" cy="-449.5" r="3.8"></circle>
		<circle class="bg-hexagon" cx="742.5" cy="-449.4" r="3.8"></circle>
		<circle class="bg-hexagon" cx="702.4" cy="-472.8" r="3.8"></circle>
		<circle class="bg-hexagon" cx="662.2" cy="-403.9" r="3.8"></circle>
		<circle class="bg-hexagon" cx="702.4" cy="-380.8" r="3.8"></circle>
		<circle class="bg-hexagon" cx="742.2" cy="-403.7" r="3.8"></circle>
		
			<rect x="699.4" y="-462.1" transform="matrix(-0.8651 -0.5016 0.5016 -0.8651 1577.9415 -498.8186)" class="bg-hexagon" width="45" height="1"></rect>
		
			<rect x="659.3" y="-461.5" transform="matrix(-0.8665 0.4992 -0.4992 -0.8665 1042.4121 -1200.7822)" class="bg-hexagon" width="45" height="1"></rect>
		
			<rect x="699.4" y="-392.5" transform="matrix(-0.8665 0.4992 -0.4992 -0.8665 1151.7549 -1092.0575)" class="bg-hexagon" width="45" height="1"></rect>
		
			<rect x="659.3" y="-393" transform="matrix(-0.8651 -0.5016 0.5016 -0.8651 1468.498 -390.0683)" class="bg-hexagon" width="45" height="1"></rect>
		
			<rect x="721.9" y="-427.5" transform="matrix(-2.044091e-003 1 -1 -2.044091e-003 317.0338 -1170.3219)" class="bg-hexagon" width="41.1" height="1"></rect>
		
			<rect x="642.7" y="-427.1" transform="matrix(-2.044091e-003 1 -1 -2.044091e-003 237.4069 -1090.219)" class="bg-hexagon" width="39.9" height="1"></rect>
	</g>
</g>
<g>
	<g>
		
			<rect x="619" y="-392.8" transform="matrix(-0.8665 0.4992 -0.4992 -0.8665 1001.485 -1052.476)" class="bg-hexagon" width="45" height="1"></rect>
		
			<rect x="659.1" y="-323.8" transform="matrix(-0.8665 0.4992 -0.4992 -0.8665 1110.8279 -943.7513)" class="bg-hexagon" width="45" height="1"></rect>
		
			<rect x="602.4" y="-358.5" transform="matrix(-2.044091e-003 1 -1 -2.044091e-003 265.6513 -981.1159)" class="bg-hexagon" width="39.9" height="1"></rect>
	</g>
</g>
<g>
	<g>
		<circle class="bg-hexagon" cx="782" cy="-380.4" r="3.8"></circle>
		<circle class="bg-hexagon" cx="701.7" cy="-334.9" r="3.8"></circle>
		<circle class="bg-hexagon" cx="741.9" cy="-311.8" r="3.8"></circle>
		<circle class="bg-hexagon" cx="781.7" cy="-334.7" r="3.8"></circle>
		
			<rect x="738.9" y="-393.1" transform="matrix(-0.8651 -0.5016 0.5016 -0.8651 1617.0145 -350.3037)" class="bg-hexagon" width="45" height="1"></rect>
		
			<rect x="738.9" y="-323.5" transform="matrix(-0.8665 0.4992 -0.4992 -0.8665 1259.9117 -982.9803)" class="bg-hexagon" width="45" height="1"></rect>
		
			<rect x="698.8" y="-324" transform="matrix(-0.8651 -0.5016 0.5016 -0.8651 1507.5714 -241.5535)" class="bg-hexagon" width="45" height="1"></rect>
		
			<rect x="761.5" y="-358.5" transform="matrix(-2.044091e-003 1 -1 -2.044091e-003 425.711 -1140.7469)" class="bg-hexagon" width="41.1" height="1"></rect>
		
			<rect x="682.2" y="-358.1" transform="matrix(-2.044091e-003 1 -1 -2.044091e-003 345.9837 -1060.5442)" class="bg-hexagon" width="39.9" height="1"></rect>
	</g>
</g>
<g>
	<g>
		<circle class="bg-hexagon" cx="542.5" cy="-380.9" r="3.8"></circle>
		<circle class="bg-hexagon" cx="622.4" cy="-380.7" r="3.8"></circle>
		<circle class="bg-hexagon" cx="582.3" cy="-404.2" r="3.8"></circle>
		<circle class="bg-hexagon" cx="542" cy="-335.2" r="3.8"></circle>
		<circle class="bg-hexagon" cx="582.3" cy="-312.1" r="3.8"></circle>
		<circle class="bg-hexagon" cx="622" cy="-335.1" r="3.8"></circle>
		
			<rect x="579.2" y="-393.4" transform="matrix(-0.8651 -0.5016 0.5016 -0.8651 1319.2913 -431.0081)" class="bg-hexagon" width="45" height="1"></rect>
		
			<rect x="539.1" y="-392.8" transform="matrix(-0.8665 0.4992 -0.4992 -0.8665 852.3793 -1012.54)" class="bg-hexagon" width="45" height="1"></rect>
		
			<rect x="539.1" y="-324.3" transform="matrix(-0.8651 -0.5016 0.5016 -0.8651 1209.8478 -322.2575)" class="bg-hexagon" width="45" height="1"></rect>
		
			<rect x="522.6" y="-358.5" transform="matrix(-2.044091e-003 1 -1 -2.044091e-003 185.6021 -901.316)" class="bg-hexagon" width="39.9" height="1"></rect>
	</g>
</g>
<g>
	<g>
		<circle class="bg-hexagon" cx="662.1" cy="-311.6" r="3.8"></circle>
		<circle class="bg-hexagon" cx="661.8" cy="-266" r="3.8"></circle>
		
			<rect x="619" y="-324.3" transform="matrix(-0.8651 -0.5016 0.5016 -0.8651 1358.8396 -282.1295)" class="bg-hexagon" width="45" height="1"></rect>
		
			<rect x="578.9" y="-323.7" transform="matrix(-0.8665 0.4992 -0.4992 -0.8665 961.14 -903.4688)" class="bg-hexagon" width="45" height="1"></rect>
		
			<rect x="619" y="-254.7" transform="matrix(-0.8665 0.4992 -0.4992 -0.8665 1070.4828 -794.7442)" class="bg-hexagon" width="45" height="1"></rect>
		
			<rect x="578.9" y="-255.2" transform="matrix(-0.8651 -0.5016 0.5016 -0.8651 1249.3962 -173.3791)" class="bg-hexagon" width="45" height="1"></rect>
		
			<rect x="641.5" y="-289.7" transform="matrix(-2.044091e-003 1 -1 -2.044091e-003 374.226 -951.8763)" class="bg-hexagon" width="41.1" height="1"></rect>
		
			<rect x="562.3" y="-289.4" transform="matrix(-2.044091e-003 1 -1 -2.044091e-003 294.599 -871.7732)" class="bg-hexagon" width="39.9" height="1"></rect>
	</g>
</g>
<g>
	<g>
		<circle class="bg-hexagon" cx="541.8" cy="-242.9" r="3.8"></circle>
		<circle class="bg-hexagon" cx="621.6" cy="-242.7" r="3.8"></circle>
		<circle class="bg-hexagon" cx="581.5" cy="-266.2" r="3.8"></circle>
		<circle class="bg-hexagon" cx="541.3" cy="-197.3" r="3.8"></circle>
		<circle class="bg-hexagon" cx="581.5" cy="-174.1" r="3.8"></circle>
		<circle class="bg-hexagon" cx="621.3" cy="-197.1" r="3.8"></circle>
		
			<rect x="578.5" y="-255.5" transform="matrix(-0.8651 -0.5016 0.5016 -0.8651 1248.833 -174.0981)" class="bg-hexagon" width="45" height="1"></rect>
		
			<rect x="538.4" y="-254.8" transform="matrix(-0.8665 0.4992 -0.4992 -0.8665 919.9836 -754.6777)" class="bg-hexagon" width="45" height="1"></rect>
		
			<rect x="578.5" y="-185.9" transform="matrix(-0.8665 0.4992 -0.4992 -0.8665 1029.1899 -646.0898)" class="bg-hexagon" width="45" height="1"></rect>
		
			<rect x="538.4" y="-186.4" transform="matrix(-0.8651 -0.5016 0.5016 -0.8651 1139.3896 -65.3479)" class="bg-hexagon" width="45" height="1"></rect>
		
			<rect x="601.1" y="-220.9" transform="matrix(-2.044091e-003 1 -1 -2.044091e-003 402.5346 -842.4373)" class="bg-hexagon" width="41.1" height="1"></rect>
		
			<rect x="521.8" y="-220.5" transform="matrix(-2.044091e-003 1 -1 -2.044091e-003 322.8073 -762.2344)" class="bg-hexagon" width="39.9" height="1"></rect>
	</g>
</g>
<g>
	<g>
		<circle class="bg-hexagon" cx="583.5" cy="-36.6" r="3.8"></circle>
		<circle class="bg-hexagon" cx="623.3" cy="-59.9" r="3.8"></circle>
		
			<rect x="620.2" y="-49.2" transform="matrix(-0.8651 -0.5016 0.5016 -0.8651 1223.1442 231.5354)" class="bg-hexagon" width="45" height="1"></rect>
		
			<rect x="580.1" y="-48.5" transform="matrix(-0.8665 0.4992 -0.4992 -0.8665 1100.8375 -390.3913)" class="bg-hexagon" width="45" height="1"></rect>
		
			<rect x="563.6" y="-14.3" transform="matrix(-2.044091e-003 1 -1 -2.044091e-003 570.9009 -597.3302)" class="bg-hexagon" width="39.9" height="1"></rect>
	</g>
</g>
<g>
	<g>
		<circle class="bg-hexagon" cx="663.4" cy="-36.2" r="3.8"></circle>
		<circle class="bg-hexagon" cx="743.3" cy="-36" r="3.8"></circle>
		<circle class="bg-hexagon" cx="703.2" cy="-59.5" r="3.8"></circle>
		<circle class="bg-hexagon" cx="662.9" cy="9.4" r="3.8"></circle>
		<circle class="bg-hexagon" cx="703.2" cy="32.6" r="3.8"></circle>
		<circle class="bg-hexagon" cx="742.9" cy="9.6" r="3.8"></circle>
		
			<rect x="700.1" y="-48.8" transform="matrix(-0.8651 -0.5016 0.5016 -0.8651 1371.9901 272.3539)" class="bg-hexagon" width="45" height="1"></rect>
		
			<rect x="660.1" y="-48.1" transform="matrix(-0.8665 0.4992 -0.4992 -0.8665 1250.3007 -429.6419)" class="bg-hexagon" width="45" height="1"></rect>
		
			<rect x="700.1" y="20.8" transform="matrix(-0.8665 0.4992 -0.4992 -0.8665 1359.3702 -320.9176)" class="bg-hexagon" width="45" height="1"></rect>
		
			<rect x="660.1" y="20.3" transform="matrix(-0.8651 -0.5016 0.5016 -0.8651 1262.6831 381.2411)" class="bg-hexagon" width="45" height="1"></rect>
		
			<rect x="722.7" y="-14.1" transform="matrix(-2.044091e-003 1 -1 -2.044091e-003 731.2284 -756.8932)" class="bg-hexagon" width="41.1" height="1"></rect>
		
			<rect x="643.5" y="-13.9" transform="matrix(-2.044091e-003 1 -1 -2.044091e-003 651.4014 -676.7908)" class="bg-hexagon" width="39.9" height="1"></rect>
	</g>
</g>
<g>
	<g>
		
			<rect x="619.7" y="20.6" transform="matrix(-0.8665 0.4992 -0.4992 -0.8665 1209.2368 -281.1992)" class="bg-hexagon" width="45" height="1"></rect>
		
			<rect x="659.8" y="89.5" transform="matrix(-0.8665 0.4992 -0.4992 -0.8665 1318.4432 -172.6115)" class="bg-hexagon" width="45" height="1"></rect>
		
			<rect x="603.1" y="54.8" transform="matrix(-2.044091e-003 1 -1 -2.044091e-003 679.6456 -567.6877)" class="bg-hexagon" width="39.9" height="1"></rect>
	</g>
</g>
<g>
	<g>
		<circle class="bg-hexagon" cx="782.8" cy="33" r="3.8"></circle>
		<circle class="bg-hexagon" cx="702.4" cy="78.4" r="3.8"></circle>
		<circle class="bg-hexagon" cx="742.7" cy="101.6" r="3.8"></circle>
		<circle class="bg-hexagon" cx="782.4" cy="78.6" r="3.8"></circle>
		
			<rect x="739.6" y="20.2" transform="matrix(-0.8651 -0.5016 0.5016 -0.8651 1411.0635 420.8687)" class="bg-hexagon" width="45" height="1"></rect>
		
			<rect x="739.6" y="89.8" transform="matrix(-0.8665 0.4992 -0.4992 -0.8665 1467.5271 -211.8404)" class="bg-hexagon" width="45" height="1"></rect>
		
			<rect x="699.6" y="89.3" transform="matrix(-0.8651 -0.5016 0.5016 -0.8651 1301.7563 529.7561)" class="bg-hexagon" width="45" height="1"></rect>
		
			<rect x="762.2" y="54.9" transform="matrix(-2.044091e-003 1 -1 -2.044091e-003 839.8053 -727.2185)" class="bg-hexagon" width="41.1" height="1"></rect>
		
			<rect x="683" y="55.2" transform="matrix(-2.044091e-003 1 -1 -2.044091e-003 760.0786 -647.2158)" class="bg-hexagon" width="39.9" height="1"></rect>
	</g>
</g>
<g>
	<g>
		<circle class="bg-hexagon" cx="543.3" cy="32.5" r="3.8"></circle>
		<circle class="bg-hexagon" cx="623.1" cy="32.7" r="3.8"></circle>
		<circle class="bg-hexagon" cx="583" cy="9.2" r="3.8"></circle>
		<circle class="bg-hexagon" cx="542.8" cy="78.1" r="3.8"></circle>
		<circle class="bg-hexagon" cx="583" cy="101.3" r="3.8"></circle>
		<circle class="bg-hexagon" cx="622.8" cy="78.3" r="3.8"></circle>
		
			<rect x="580" y="19.9" transform="matrix(-0.8651 -0.5016 0.5016 -0.8651 1113.476 340.3015)" class="bg-hexagon" width="45" height="1"></rect>
		
			<rect x="539.9" y="20.6" transform="matrix(-0.8665 0.4992 -0.4992 -0.8665 1060.2681 -241.3999)" class="bg-hexagon" width="45" height="1"></rect>
		
			<rect x="539.9" y="89" transform="matrix(-0.8651 -0.5016 0.5016 -0.8651 1004.0328 449.0518)" class="bg-hexagon" width="45" height="1"></rect>
		
			<rect x="523.3" y="54.8" transform="matrix(-2.044091e-003 1 -1 -2.044091e-003 599.6965 -487.7875)" class="bg-hexagon" width="39.9" height="1"></rect>
	</g>
</g>
<g>
	<g>
		<circle class="bg-hexagon" cx="662.9" cy="101.8" r="3.8"></circle>
		<circle class="bg-hexagon" cx="662.5" cy="147.4" r="3.8"></circle>
		
			<rect x="619.7" y="89" transform="matrix(-0.8651 -0.5016 0.5016 -0.8651 1152.8884 489.0432)" class="bg-hexagon" width="45" height="1"></rect>
		
			<rect x="579.6" y="89.7" transform="matrix(-0.8665 0.4992 -0.4992 -0.8665 1168.8918 -132.192)" class="bg-hexagon" width="45" height="1"></rect>
		
			<rect x="619.7" y="158.6" transform="matrix(-0.8665 0.4992 -0.4992 -0.8665 1278.0981 -23.6043)" class="bg-hexagon" width="45" height="1"></rect>
		
			<rect x="579.6" y="158.1" transform="matrix(-0.8651 -0.5016 0.5016 -0.8651 1043.4451 597.7934)" class="bg-hexagon" width="45" height="1"></rect>
		
			<rect x="642.3" y="123.7" transform="matrix(-2.044091e-003 1 -1 -2.044091e-003 788.4206 -538.4476)" class="bg-hexagon" width="41.1" height="1"></rect>
		
			<rect x="563.1" y="123.9" transform="matrix(-2.044091e-003 1 -1 -2.044091e-003 708.5935 -458.3451)" class="bg-hexagon" width="39.9" height="1"></rect>
	</g>
</g>
<g>
	<g>
		<circle class="bg-hexagon" cx="542.5" cy="170.4" r="3.8"></circle>
		<circle class="bg-hexagon" cx="622.4" cy="170.6" r="3.8"></circle>
		<circle class="bg-hexagon" cx="582.3" cy="147.1" r="3.8"></circle>
		<circle class="bg-hexagon" cx="542" cy="216.1" r="3.8"></circle>
		<circle class="bg-hexagon" cx="582.3" cy="239.2" r="3.8"></circle>
		<circle class="bg-hexagon" cx="622" cy="216.2" r="3.8"></circle>
		
			<rect x="579.2" y="157.9" transform="matrix(-0.8651 -0.5016 0.5016 -0.8651 1042.7448 597.2105)" class="bg-hexagon" width="45" height="1"></rect>
		
			<rect x="539.1" y="158.5" transform="matrix(-0.8665 0.4992 -0.4992 -0.8665 1127.599 16.4622)" class="bg-hexagon" width="45" height="1"></rect>
		
			<rect x="579.2" y="227.5" transform="matrix(-0.8665 0.4992 -0.4992 -0.8665 1236.9418 125.187)" class="bg-hexagon" width="45" height="1"></rect>
		
			<rect x="539.1" y="227" transform="matrix(-0.8651 -0.5016 0.5016 -0.8651 933.3016 705.9608)" class="bg-hexagon" width="45" height="1"></rect>
		
			<rect x="601.8" y="192.5" transform="matrix(-2.044091e-003 1 -1 -2.044091e-003 816.6287 -428.9088)" class="bg-hexagon" width="41.1" height="1"></rect>
		
			<rect x="522.6" y="192.7" transform="matrix(-2.044091e-003 1 -1 -2.044091e-003 736.9022 -348.9062)" class="bg-hexagon" width="39.9" height="1"></rect>
		
			<rect x="681.3" y="192.5" transform="matrix(-2.044091e-003 1 -1 -2.044091e-003 896.29 -508.4088)" class="bg-hexagon" width="41.1" height="1"></rect>
	</g>
</g>
<g>
	<g>
		<circle class="bg-hexagon" cx="544.2" cy="-105.8" r="3.8"></circle>
		<circle class="bg-hexagon" cx="583.9" cy="-128.8" r="3.8"></circle>
		
			<rect x="541.1" y="-117.5" transform="matrix(-0.8665 0.4992 -0.4992 -0.8665 993.6155 -499.7153)" class="bg-hexagon" width="45" height="1"></rect>
	</g>
</g>
<g>
	<g>
		<circle class="bg-hexagon" cx="623.8" cy="-105.4" r="3.8"></circle>
		<circle class="bg-hexagon" cx="543.4" cy="-59.9" r="3.8"></circle>
		<circle class="bg-hexagon" cx="583.7" cy="-36.8" r="3.8"></circle>
		<circle class="bg-hexagon" cx="623.4" cy="-59.8" r="3.8"></circle>
		
			<rect x="580.6" y="-118.1" transform="matrix(-0.8651 -0.5016 0.5016 -0.8651 1183.8284 83.1348)" class="bg-hexagon" width="45" height="1"></rect>
		
			<rect x="580.6" y="-48.5" transform="matrix(-0.8665 0.4992 -0.4992 -0.8665 1101.7725 -390.6381)" class="bg-hexagon" width="45" height="1"></rect>
		
			<rect x="540.6" y="-49" transform="matrix(-0.8651 -0.5016 0.5016 -0.8651 1074.5211 192.022)" class="bg-hexagon" width="45" height="1"></rect>
		
			<rect x="603.2" y="-83.4" transform="matrix(-2.044091e-003 1 -1 -2.044091e-003 542.0829 -706.8394)" class="bg-hexagon" width="41.1" height="1"></rect>
		
			<rect x="524" y="-83.2" transform="matrix(-2.044091e-003 1 -1 -2.044091e-003 462.3563 -626.8369)" class="bg-hexagon" width="39.9" height="1"></rect>
	</g>
</g>
<g>
	<g>
		
			<rect x="619" y="226.9" transform="matrix(-0.8651 -0.5016 0.5016 -0.8651 1082.3809 745.9338)" class="bg-hexagon" width="45" height="1"></rect>
		
			<rect x="562.3" y="261.8" transform="matrix(-2.044091e-003 1 -1 -2.044091e-003 845.7824 -319.3679)" class="bg-hexagon" width="39.9" height="1"></rect>
	</g>
</g>
<g>
	<g>
		<circle class="bg-hexagon" cx="662.2" cy="239.9" r="3.8"></circle>
		<circle class="bg-hexagon" cx="742" cy="240.1" r="3.8"></circle>
		<circle class="bg-hexagon" cx="701.9" cy="216.6" r="3.8"></circle>
		<circle class="bg-hexagon" cx="661.7" cy="285.5" r="3.8"></circle>
		<circle class="bg-hexagon" cx="701.9" cy="308.7" r="3.8"></circle>
		<circle class="bg-hexagon" cx="741.7" cy="285.7" r="3.8"></circle>
		
			<rect x="698.9" y="227.3" transform="matrix(-0.8651 -0.5016 0.5016 -0.8651 1231.2268 786.7524)" class="bg-hexagon" width="45" height="1"></rect>
		
			<rect x="658.8" y="228" transform="matrix(-0.8665 0.4992 -0.4992 -0.8665 1385.7269 86.386)" class="bg-hexagon" width="45" height="1"></rect>
		
			<rect x="698.9" y="296.9" transform="matrix(-0.8665 0.4992 -0.4992 -0.8665 1494.9332 194.974)" class="bg-hexagon" width="45" height="1"></rect>
		
			<rect x="658.8" y="296.4" transform="matrix(-0.8651 -0.5016 0.5016 -0.8651 1121.7834 895.5026)" class="bg-hexagon" width="45" height="1"></rect>
		
			<rect x="721.5" y="262" transform="matrix(-2.044091e-003 1 -1 -2.044091e-003 1006.0102 -479.0311)" class="bg-hexagon" width="41.1" height="1"></rect>
		
			<rect x="642.2" y="262.3" transform="matrix(-2.044091e-003 1 -1 -2.044091e-003 926.2829 -398.8283)" class="bg-hexagon" width="39.9" height="1"></rect>
	</g>
</g>
<g>
	<g>
		
			<rect x="618.5" y="296.7" transform="matrix(-0.8665 0.4992 -0.4992 -0.8665 1344.7998 234.6923)" class="bg-hexagon" width="45" height="1"></rect>
		
			<rect x="658.5" y="365.6" transform="matrix(-0.8665 0.4992 -0.4992 -0.8665 1453.8694 343.4167)" class="bg-hexagon" width="45" height="1"></rect>
		
			<rect x="601.9" y="330.9" transform="matrix(-2.044091e-003 1 -1 -2.044091e-003 954.5272 -289.7253)" class="bg-hexagon" width="39.9" height="1"></rect>
	</g>
</g>
<g>
	<g>
		<circle class="bg-hexagon" cx="781.5" cy="309.1" r="3.8"></circle>
		<circle class="bg-hexagon" cx="701.2" cy="354.5" r="3.8"></circle>
		<circle class="bg-hexagon" cx="741.4" cy="377.7" r="3.8"></circle>
		<circle class="bg-hexagon" cx="781.2" cy="354.7" r="3.8"></circle>
		
			<rect x="738.4" y="296.3" transform="matrix(-0.8651 -0.5016 0.5016 -0.8651 1270.3002 935.2672)" class="bg-hexagon" width="45" height="1"></rect>
		
			<rect x="738.4" y="365.9" transform="matrix(-0.8665 0.4992 -0.4992 -0.8665 1603.0901 304.0512)" class="bg-hexagon" width="45" height="1"></rect>
		
			<rect x="698.3" y="365.4" transform="matrix(-0.8651 -0.5016 0.5016 -0.8651 1160.8568 1044.0175)" class="bg-hexagon" width="45" height="1"></rect>
		
			<rect x="761" y="331" transform="matrix(-2.044091e-003 1 -1 -2.044091e-003 1114.587 -449.3565)" class="bg-hexagon" width="41.1" height="1"></rect>
		
			<rect x="681.8" y="331.3" transform="matrix(-2.044091e-003 1 -1 -2.044091e-003 1034.9602 -369.2535)" class="bg-hexagon" width="39.9" height="1"></rect>
	</g>
</g>
<g>
	<g>
		<circle class="bg-hexagon" cx="542" cy="308.6" r="3.8"></circle>
		<circle class="bg-hexagon" cx="621.8" cy="308.8" r="3.8"></circle>
		<circle class="bg-hexagon" cx="581.8" cy="285.3" r="3.8"></circle>
		<circle class="bg-hexagon" cx="541.5" cy="354.2" r="3.8"></circle>
		<circle class="bg-hexagon" cx="581.8" cy="377.4" r="3.8"></circle>
		<circle class="bg-hexagon" cx="621.5" cy="354.4" r="3.8"></circle>
		
			<rect x="578.7" y="296" transform="matrix(-0.8651 -0.5016 0.5016 -0.8651 972.5766 854.5629)" class="bg-hexagon" width="45" height="1"></rect>
		
			<rect x="538.6" y="296.7" transform="matrix(-0.8665 0.4992 -0.4992 -0.8665 1195.6943 274.6282)" class="bg-hexagon" width="45" height="1"></rect>
		
			<rect x="538.6" y="365.1" transform="matrix(-0.8651 -0.5016 0.5016 -0.8651 863.1331 963.3134)" class="bg-hexagon" width="45" height="1"></rect>
		
			<rect x="522" y="330.9" transform="matrix(-2.044091e-003 1 -1 -2.044091e-003 874.4782 -209.9256)" class="bg-hexagon" width="39.9" height="1"></rect>
	</g>
</g>
<g>
	<g>
		<circle class="bg-hexagon" cx="661.6" cy="377.9" r="3.8"></circle>
		<circle class="bg-hexagon" cx="661.3" cy="423.5" r="3.8"></circle>
		
			<rect x="618.5" y="365.1" transform="matrix(-0.8651 -0.5016 0.5016 -0.8651 1012.1249 1003.4416)" class="bg-hexagon" width="45" height="1"></rect>
		
			<rect x="578.4" y="365.8" transform="matrix(-0.8665 0.4992 -0.4992 -0.8665 1304.455 383.6995)" class="bg-hexagon" width="45" height="1"></rect>
		
			<rect x="618.5" y="434.7" transform="matrix(-0.8665 0.4992 -0.4992 -0.8665 1413.6613 492.2875)" class="bg-hexagon" width="45" height="1"></rect>
		
			<rect x="578.4" y="434.2" transform="matrix(-0.8651 -0.5016 0.5016 -0.8651 902.6818 1112.1919)" class="bg-hexagon" width="45" height="1"></rect>
		
			<rect x="641.1" y="399.7" transform="matrix(-2.044091e-003 1 -1 -2.044091e-003 1063.2023 -260.5855)" class="bg-hexagon" width="41.1" height="1"></rect>
		
			<rect x="561.8" y="400" transform="matrix(-2.044091e-003 1 -1 -2.044091e-003 983.475 -180.3828)" class="bg-hexagon" width="39.9" height="1"></rect>
	</g>
</g>
<g>
	<g>
		<circle class="bg-hexagon" cx="541.3" cy="446.5" r="3.8"></circle>
		<circle class="bg-hexagon" cx="621.1" cy="446.7" r="3.8"></circle>
		<circle class="bg-hexagon" cx="581" cy="423.2" r="3.8"></circle>
		<circle class="bg-hexagon" cx="540.8" cy="492.2" r="3.8"></circle>
		<circle class="bg-hexagon" cx="581" cy="515.3" r="3.8"></circle>
		<circle class="bg-hexagon" cx="620.8" cy="492.3" r="3.8"></circle>
		<rect x="578" y="434" transform="matrix(-0.8651 -0.5016 0.5016 -0.8651 901.9814 1111.609)" class="bg-hexagon" width="45" height="1"></rect>
		
			<rect x="537.9" y="434.6" transform="matrix(-0.8665 0.4992 -0.4992 -0.8665 1263.162 532.3538)" class="bg-hexagon" width="45" height="1"></rect>
		
			<rect x="578" y="503.6" transform="matrix(-0.8665 0.4992 -0.4992 -0.8665 1372.5048 641.0785)" class="bg-hexagon" width="45" height="1"></rect>
		
			<rect x="537.9" y="503.1" transform="matrix(-0.8651 -0.5016 0.5016 -0.8651 792.5382 1220.3593)" class="bg-hexagon" width="45" height="1"></rect>
		
			<rect x="600.5" y="468.7" transform="matrix(-2.044091e-003 1 -1 -2.044091e-003 1091.5104 -150.9462)" class="bg-hexagon" width="41.1" height="1"></rect>
		
			<rect x="521.3" y="468.9" transform="matrix(-2.044091e-003 1 -1 -2.044091e-003 1011.7836 -70.9437)" class="bg-hexagon" width="39.9" height="1"></rect>
	</g>
</g>
<g>
	<g>
		<circle class="bg-hexagon" cx="702.5" cy="170.8" r="3.8"></circle>
		<circle class="bg-hexagon" cx="742.3" cy="147.8" r="3.8"></circle>
		
			<rect x="699.5" y="159" transform="matrix(-0.8665 0.4992 -0.4992 -0.8665 1427.2041 -62.7271)" class="bg-hexagon" width="45" height="1"></rect>
		
			<rect x="659.4" y="158.5" transform="matrix(-0.8651 -0.5016 0.5016 -0.8651 1192.0704 638.6205)" class="bg-hexagon" width="45" height="1"></rect>
		
			<rect x="722.1" y="124.1" transform="matrix(-2.044091e-003 1 -1 -2.044091e-003 868.6855 -617.8082)" class="bg-hexagon" width="41.1" height="1"></rect>
	</g>
</g>
<g>
	<g>
		<circle class="bg-hexagon" cx="701.2" cy="446.8" r="3.8"></circle>
		<circle class="bg-hexagon" cx="740.9" cy="423.8" r="3.8"></circle>
		
			<rect x="698.1" y="435" transform="matrix(-0.8665 0.4992 -0.4992 -0.8665 1562.3879 453.186)" class="bg-hexagon" width="45" height="1"></rect>
		
			<rect x="658" y="434.5" transform="matrix(-0.8651 -0.5016 0.5016 -0.8651 1051.0565 1152.6394)" class="bg-hexagon" width="45" height="1"></rect>
		
			<rect x="720.7" y="400.1" transform="matrix(-2.044091e-003 1 -1 -2.044091e-003 1143.3989 -339.8138)" class="bg-hexagon" width="41.1" height="1"></rect>
		<circle class="bg-hexagon" cx="661.4" cy="515.7" r="3.8"></circle>
		
			<rect x="658.4" y="504" transform="matrix(-0.8665 0.4992 -0.4992 -0.8665 1522.7661 601.7174)" class="bg-hexagon" width="45" height="1"></rect>
		
			<rect x="618.3" y="503.5" transform="matrix(-0.8651 -0.5016 0.5016 -0.8651 942.3182 1261.4259)" class="bg-hexagon" width="45" height="1"></rect>
	</g>
</g>
<g>
	<g>
		<circle class="bg-hexagon" cx="780.8" cy="446.7" r="3.8"></circle>
		<circle class="bg-hexagon" cx="700.4" cy="492.2" r="3.8"></circle>
		<circle class="bg-hexagon" cx="740.7" cy="515.3" r="3.8"></circle>
		<circle class="bg-hexagon" cx="780.4" cy="492.3" r="3.8"></circle>
		
			<rect x="737.6" y="434" transform="matrix(-0.8651 -0.5016 0.5016 -0.8651 1199.6844 1191.606)" class="bg-hexagon" width="45" height="1"></rect>
		
			<rect x="737.6" y="503.6" transform="matrix(-0.8665 0.4992 -0.4992 -0.8665 1670.4344 561.4653)" class="bg-hexagon" width="45" height="1"></rect>
		
			<rect x="697.5" y="503.1" transform="matrix(-0.8651 -0.5016 0.5016 -0.8651 1090.2411 1300.3564)" class="bg-hexagon" width="45" height="1"></rect>
		
			<rect x="760.2" y="468.6" transform="matrix(-2.044091e-003 1 -1 -2.044091e-003 1251.4757 -310.6465)" class="bg-hexagon" width="41.1" height="1"></rect>
		
			<rect x="681" y="468.9" transform="matrix(-2.044091e-003 1 -1 -2.044091e-003 1171.7491 -230.6439)" class="bg-hexagon" width="39.9" height="1"></rect>
	</g>
</g>
<g>
	<g>
		<circle class="bg-hexagon" cx="1942.1" cy="-538.9" r="3.8"></circle>
		<circle class="bg-hexagon" cx="1902.3" cy="-562.2" r="3.8"></circle>
		
			<rect x="1860.4" y="-551.5" transform="matrix(0.8651 -0.5016 0.5016 0.8651 530.3695 870.1149)" class="bg-hexagon" width="45" height="1"></rect>
		
			<rect x="1900.5" y="-550.8" transform="matrix(0.8665 0.4992 -0.4992 0.8665 -17.9822 -1033.4258)" class="bg-hexagon" width="45" height="1"></rect>
		
			<rect x="1922.1" y="-516.6" transform="matrix(2.044091e-003 1 -1 2.044091e-003 1422.0242 -2457.0698)" class="bg-hexagon" width="39.9" height="1"></rect>
	</g>
</g>
<g>
	<g>
		<circle class="bg-hexagon" cx="1862.2" cy="-538.5" r="3.8"></circle>
		<circle class="bg-hexagon" cx="1782.3" cy="-538.3" r="3.8"></circle>
		<circle class="bg-hexagon" cx="1822.4" cy="-561.8" r="3.8"></circle>
		<circle class="bg-hexagon" cx="1862.7" cy="-492.9" r="3.8"></circle>
		<circle class="bg-hexagon" cx="1822.4" cy="-469.7" r="3.8"></circle>
		<circle class="bg-hexagon" cx="1782.7" cy="-492.7" r="3.8"></circle>
		
			<rect x="1780.5" y="-551.1" transform="matrix(0.8651 -0.5016 0.5016 0.8651 519.4014 830.1208)" class="bg-hexagon" width="45" height="1"></rect>
		
			<rect x="1820.6" y="-550.4" transform="matrix(0.8665 0.4992 -0.4992 0.8665 -28.4424 -993.4613)" class="bg-hexagon" width="45" height="1"></rect>
		
			<rect x="1780.5" y="-481.4" transform="matrix(0.8665 0.4992 -0.4992 0.8665 0.6343 -964.2417)" class="bg-hexagon" width="45" height="1"></rect>
		
			<rect x="1820.6" y="-482" transform="matrix(0.8651 -0.5016 0.5016 0.8651 490.1417 859.544)" class="bg-hexagon" width="45" height="1"></rect>
		
			<rect x="1761.8" y="-516.5" transform="matrix(2.044091e-003 1 -1 2.044091e-003 1262.7496 -2297.2336)" class="bg-hexagon" width="41.1" height="1"></rect>
		
			<rect x="1842.2" y="-516.2" transform="matrix(2.044091e-003 1 -1 2.044091e-003 1342.6501 -2376.7319)" class="bg-hexagon" width="39.9" height="1"></rect>
	</g>
</g>
<g>
	<g>
		
			<rect x="1860.8" y="-481.8" transform="matrix(0.8665 0.4992 -0.4992 0.8665 11.1981 -1004.4113)" class="bg-hexagon" width="45" height="1"></rect>
		
			<rect x="1820.8" y="-412.8" transform="matrix(0.8665 0.4992 -0.4992 0.8665 40.2745 -975.1915)" class="bg-hexagon" width="45" height="1"></rect>
		
			<rect x="1882.5" y="-447.4" transform="matrix(2.044091e-003 1 -1 2.044091e-003 1451.6412 -2348.51)" class="bg-hexagon" width="39.9" height="1"></rect>
	</g>
</g>
<g>
	<g>
		<circle class="bg-hexagon" cx="1742.8" cy="-469.3" r="3.8"></circle>
		<circle class="bg-hexagon" cx="1823.2" cy="-423.9" r="3.8"></circle>
		<circle class="bg-hexagon" cx="1782.9" cy="-400.7" r="3.8"></circle>
		<circle class="bg-hexagon" cx="1743.2" cy="-423.7" r="3.8"></circle>
		
			<rect x="1741" y="-482.1" transform="matrix(0.8651 -0.5016 0.5016 0.8651 479.4486 819.6255)" class="bg-hexagon" width="45" height="1"></rect>
		
			<rect x="1741" y="-412.4" transform="matrix(0.8665 0.4992 -0.4992 0.8665 29.8203 -935.305)" class="bg-hexagon" width="45" height="1"></rect>
		
			<rect x="1781.1" y="-412.9" transform="matrix(0.8651 -0.5016 0.5016 0.8651 450.189 849.0486)" class="bg-hexagon" width="45" height="1"></rect>
		
			<rect x="1722.3" y="-447.4" transform="matrix(2.044091e-003 1 -1 2.044091e-003 1292.3341 -2188.8408)" class="bg-hexagon" width="41.1" height="1"></rect>
		
			<rect x="1802.7" y="-447.1" transform="matrix(2.044091e-003 1 -1 2.044091e-003 1372.2351 -2268.3394)" class="bg-hexagon" width="39.9" height="1"></rect>
	</g>
</g>
<g>
	<g>
		<circle class="bg-hexagon" cx="1982.3" cy="-469.8" r="3.8"></circle>
		<circle class="bg-hexagon" cx="1902.5" cy="-469.7" r="3.8"></circle>
		<circle class="bg-hexagon" cx="1942.6" cy="-493.1" r="3.8"></circle>
		<circle class="bg-hexagon" cx="1982.8" cy="-424.2" r="3.8"></circle>
		<circle class="bg-hexagon" cx="1942.6" cy="-401.1" r="3.8"></circle>
		<circle class="bg-hexagon" cx="1902.8" cy="-424" r="3.8"></circle>
		
			<rect x="1900.7" y="-482.4" transform="matrix(0.8651 -0.5016 0.5016 0.8651 501.1617 899.6541)" class="bg-hexagon" width="45" height="1"></rect>
		
			<rect x="1940.7" y="-481.7" transform="matrix(0.8665 0.4992 -0.4992 0.8665 21.8734 -1044.2838)" class="bg-hexagon" width="45" height="1"></rect>
		
			<rect x="1940.7" y="-413.3" transform="matrix(0.8651 -0.5016 0.5016 0.8651 471.9021 929.0772)" class="bg-hexagon" width="45" height="1"></rect>
		
			<rect x="1962.4" y="-447.5" transform="matrix(2.044091e-003 1 -1 2.044091e-003 1531.2638 -2428.4094)" class="bg-hexagon" width="39.9" height="1"></rect>
	</g>
</g>
<g>
	<g>
		<circle class="bg-hexagon" cx="1862.7" cy="-400.6" r="3.8"></circle>
		<circle class="bg-hexagon" cx="1863.1" cy="-354.9" r="3.8"></circle>
		
			<rect x="1860.9" y="-413.3" transform="matrix(0.8651 -0.5016 0.5016 0.8651 461.1157 889.0118)" class="bg-hexagon" width="45" height="1"></rect>
		
			<rect x="1901" y="-412.6" transform="matrix(0.8665 0.4992 -0.4992 0.8665 51.0753 -1015.2268)" class="bg-hexagon" width="45" height="1"></rect>
		
			<rect x="1860.8" y="-343.7" transform="matrix(0.8665 0.4992 -0.4992 0.8665 80.1154 -985.9705)" class="bg-hexagon" width="45" height="1"></rect>
		
			<rect x="1901" y="-344.2" transform="matrix(0.8651 -0.5016 0.5016 0.8651 431.893 918.4716)" class="bg-hexagon" width="45" height="1"></rect>
		
			<rect x="1842.2" y="-378.6" transform="matrix(2.044091e-003 1 -1 2.044091e-003 1480.8286 -2240.1511)" class="bg-hexagon" width="41.1" height="1"></rect>
		
			<rect x="1922.6" y="-378.4" transform="matrix(2.044091e-003 1 -1 2.044091e-003 1560.7294 -2319.6497)" class="bg-hexagon" width="39.9" height="1"></rect>
	</g>
</g>
<g>
	<g>
		<circle class="bg-hexagon" cx="1983.1" cy="-331.9" r="3.8"></circle>
		<circle class="bg-hexagon" cx="1903.2" cy="-331.7" r="3.8"></circle>
		<circle class="bg-hexagon" cx="1943.3" cy="-355.2" r="3.8"></circle>
		<circle class="bg-hexagon" cx="1983.6" cy="-286.3" r="3.8"></circle>
		<circle class="bg-hexagon" cx="1943.3" cy="-263.1" r="3.8"></circle>
		<circle class="bg-hexagon" cx="1903.6" cy="-286.1" r="3.8"></circle>
		
			<rect x="1901.4" y="-344.4" transform="matrix(0.8651 -0.5016 0.5016 0.8651 432.0283 918.6362)" class="bg-hexagon" width="45" height="1"></rect>
		
			<rect x="1941.4" y="-343.8" transform="matrix(0.8665 0.4992 -0.4992 0.8665 90.8348 -1026.2014)" class="bg-hexagon" width="45" height="1"></rect>
		
			<rect x="1901.3" y="-274.8" transform="matrix(0.8665 0.4992 -0.4992 0.8665 119.9114 -996.9818)" class="bg-hexagon" width="45" height="1"></rect>
		
			<rect x="1941.5" y="-275.3" transform="matrix(0.8651 -0.5016 0.5016 0.8651 402.7687 948.0593)" class="bg-hexagon" width="45" height="1"></rect>
		
			<rect x="1882.7" y="-309.8" transform="matrix(2.044091e-003 1 -1 2.044091e-003 1590.0548 -2211.8938)" class="bg-hexagon" width="41.1" height="1"></rect>
		
			<rect x="1963.2" y="-309.5" transform="matrix(2.044091e-003 1 -1 2.044091e-003 1670.0553 -2291.4924)" class="bg-hexagon" width="39.9" height="1"></rect>
	</g>
</g>
<g>
	<g>
		<circle class="bg-hexagon" cx="1941.3" cy="-125.6" r="3.8"></circle>
		<circle class="bg-hexagon" cx="1901.6" cy="-148.9" r="3.8"></circle>
		
			<rect x="1859.7" y="-138.1" transform="matrix(0.8651 -0.5016 0.5016 0.8651 322.9392 925.534)" class="bg-hexagon" width="45" height="1"></rect>
		
			<rect x="1899.7" y="-137.5" transform="matrix(0.8665 0.4992 -0.4992 0.8665 188.2526 -977.8369)" class="bg-hexagon" width="45" height="1"></rect>
		
			<rect x="1921.4" y="-103.3" transform="matrix(2.044091e-003 1 -1 2.044091e-003 1834.6322 -2043.931)" class="bg-hexagon" width="39.9" height="1"></rect>
	</g>
</g>
<g>
	<g>
		<circle class="bg-hexagon" cx="1861.4" cy="-125.2" r="3.8"></circle>
		<circle class="bg-hexagon" cx="1781.6" cy="-125" r="3.8"></circle>
		<circle class="bg-hexagon" cx="1821.7" cy="-148.5" r="3.8"></circle>
		<circle class="bg-hexagon" cx="1861.9" cy="-79.5" r="3.8"></circle>
		<circle class="bg-hexagon" cx="1821.7" cy="-56.4" r="3.8"></circle>
		<circle class="bg-hexagon" cx="1781.9" cy="-79.4" r="3.8"></circle>
		
			<rect x="1779.7" y="-137.8" transform="matrix(0.8651 -0.5016 0.5016 0.8651 311.9709 885.4666)" class="bg-hexagon" width="45" height="1"></rect>
		
			<rect x="1819.8" y="-137.1" transform="matrix(0.8665 0.4992 -0.4992 0.8665 177.7925 -937.8724)" class="bg-hexagon" width="45" height="1"></rect>
		
			<rect x="1779.7" y="-68.2" transform="matrix(0.8665 0.4992 -0.4992 0.8665 206.8324 -908.6892)" class="bg-hexagon" width="45" height="1"></rect>
		
			<rect x="1819.8" y="-68.7" transform="matrix(0.8651 -0.5016 0.5016 0.8651 282.7113 914.8896)" class="bg-hexagon" width="45" height="1"></rect>
		
			<rect x="1761" y="-103.1" transform="matrix(2.044091e-003 1 -1 2.044091e-003 1675.3583 -1883.895)" class="bg-hexagon" width="41.1" height="1"></rect>
		
			<rect x="1841.5" y="-102.8" transform="matrix(2.044091e-003 1 -1 2.044091e-003 1755.3586 -1963.4937)" class="bg-hexagon" width="39.9" height="1"></rect>
	</g>
</g>
<g>
	<g>
		
			<rect x="1860.1" y="-68.4" transform="matrix(0.8665 0.4992 -0.4992 0.8665 217.4694 -948.8589)" class="bg-hexagon" width="45" height="1"></rect>
		<rect x="1820" y="0.6" transform="matrix(0.8665 0.4992 -0.4992 0.8665 246.5458 -919.6393)" class="bg-hexagon" width="45" height="1"></rect>
		
			<rect x="1881.8" y="-34.2" transform="matrix(2.044091e-003 1 -1 2.044091e-003 1864.2494 -1935.371)" class="bg-hexagon" width="39.9" height="1"></rect>
	</g>
</g>
<g>
	<g>
		<circle class="bg-hexagon" cx="1742.1" cy="-56" r="3.8"></circle>
		<circle class="bg-hexagon" cx="1822.4" cy="-10.5" r="3.8"></circle>
		<circle class="bg-hexagon" cx="1782.2" cy="12.6" r="3.8"></circle>
		<circle class="bg-hexagon" cx="1742.4" cy="-10.4" r="3.8"></circle>
		
			<rect x="1740.2" y="-68.7" transform="matrix(0.8651 -0.5016 0.5016 0.8651 272.0181 874.9712)" class="bg-hexagon" width="45" height="1"></rect>
		
			<rect x="1740.2" y="0.9" transform="matrix(0.8665 0.4992 -0.4992 0.8665 236.0185 -879.7525)" class="bg-hexagon" width="45" height="1"></rect>
		
			<rect x="1780.3" y="0.4" transform="matrix(0.8651 -0.5016 0.5016 0.8651 242.7586 904.3943)" class="bg-hexagon" width="45" height="1"></rect>
		
			<rect x="1721.5" y="-34" transform="matrix(2.044091e-003 1 -1 2.044091e-003 1704.943 -1775.5024)" class="bg-hexagon" width="41.1" height="1"></rect>
		
			<rect x="1802" y="-33.8" transform="matrix(2.044091e-003 1 -1 2.044091e-003 1784.9434 -1855.101)" class="bg-hexagon" width="39.9" height="1"></rect>
	</g>
</g>
<g>
	<g>
		<circle class="bg-hexagon" cx="1981.6" cy="-56.5" r="3.8"></circle>
		<circle class="bg-hexagon" cx="1901.8" cy="-56.3" r="3.8"></circle>
		<circle class="bg-hexagon" cx="1941.8" cy="-79.8" r="3.8"></circle>
		<circle class="bg-hexagon" cx="1982.1" cy="-10.9" r="3.8"></circle>
		<circle class="bg-hexagon" cx="1941.8" cy="12.3" r="3.8"></circle>
		<circle class="bg-hexagon" cx="1902.1" cy="-10.7" r="3.8"></circle>
		
			<rect x="1899.9" y="-69" transform="matrix(0.8651 -0.5016 0.5016 0.8651 293.6946 955.0366)" class="bg-hexagon" width="45" height="1"></rect>
		
			<rect x="1939.9" y="-68.4" transform="matrix(0.8665 0.4992 -0.4992 0.8665 228.1081 -988.6948)" class="bg-hexagon" width="45" height="1"></rect>
		<rect x="1940" y="0.1" transform="matrix(0.8651 -0.5016 0.5016 0.8651 264.435 984.4597)" class="bg-hexagon" width="45" height="1"></rect>
		
			<rect x="1961.7" y="-34.1" transform="matrix(2.044091e-003 1 -1 2.044091e-003 1943.9722 -2015.1711)" class="bg-hexagon" width="39.9" height="1"></rect>
	</g>
</g>
<g>
	<g>
		<circle class="bg-hexagon" cx="1862" cy="12.8" r="3.8"></circle>
		<circle class="bg-hexagon" cx="1862.3" cy="58.4" r="3.8"></circle>
		<rect x="1860.2" y="0.1" transform="matrix(0.8651 -0.5016 0.5016 0.8651 253.6854 944.431)" class="bg-hexagon" width="45" height="1"></rect>
		
			<rect x="1900.2" y="0.7" transform="matrix(0.8665 0.4992 -0.4992 0.8665 257.3102 -959.6378)" class="bg-hexagon" width="45" height="1"></rect>
		
			<rect x="1860.1" y="69.7" transform="matrix(0.8665 0.4992 -0.4992 0.8665 286.3866 -930.4182)" class="bg-hexagon" width="45" height="1"></rect>
		
			<rect x="1900.3" y="69.2" transform="matrix(0.8651 -0.5016 0.5016 0.8651 224.4259 973.8542)" class="bg-hexagon" width="45" height="1"></rect>
		
			<rect x="1841.4" y="34.7" transform="matrix(2.044091e-003 1 -1 2.044091e-003 1893.4375 -1826.8126)" class="bg-hexagon" width="41.1" height="1"></rect>
		
			<rect x="1921.9" y="34.9" transform="matrix(2.044091e-003 1 -1 2.044091e-003 1973.3378 -1906.5109)" class="bg-hexagon" width="39.9" height="1"></rect>
	</g>
</g>
<g>
	<g>
		<circle class="bg-hexagon" cx="1982.3" cy="81.5" r="3.8"></circle>
		<circle class="bg-hexagon" cx="1902.5" cy="81.6" r="3.8"></circle>
		<circle class="bg-hexagon" cx="1942.6" cy="58.2" r="3.8"></circle>
		<circle class="bg-hexagon" cx="1982.8" cy="127.1" r="3.8"></circle>
		<circle class="bg-hexagon" cx="1942.6" cy="150.2" r="3.8"></circle>
		<circle class="bg-hexagon" cx="1902.8" cy="127.3" r="3.8"></circle>
		
			<rect x="1900.7" y="68.9" transform="matrix(0.8651 -0.5016 0.5016 0.8651 224.6347 974.0186)" class="bg-hexagon" width="45" height="1"></rect>
		
			<rect x="1940.7" y="69.5" transform="matrix(0.8665 0.4992 -0.4992 0.8665 297.0695 -970.6856)" class="bg-hexagon" width="45" height="1"></rect>
		
			<rect x="1900.6" y="138.5" transform="matrix(0.8665 0.4992 -0.4992 0.8665 326.146 -941.4659)" class="bg-hexagon" width="45" height="1"></rect>
		
			<rect x="1940.7" y="138" transform="matrix(0.8651 -0.5016 0.5016 0.8651 195.3751 1003.4417)" class="bg-hexagon" width="45" height="1"></rect>
		
			<rect x="1882" y="103.5" transform="matrix(2.044091e-003 1 -1 2.044091e-003 2002.6628 -1798.7551)" class="bg-hexagon" width="41.1" height="1"></rect>
		
			<rect x="1962.4" y="103.8" transform="matrix(2.044091e-003 1 -1 2.044091e-003 2082.5637 -1878.2534)" class="bg-hexagon" width="39.9" height="1"></rect>
		
			<rect x="1802.5" y="103.5" transform="matrix(2.044091e-003 1 -1 2.044091e-003 1923.3269 -1719.2551)" class="bg-hexagon" width="41.1" height="1"></rect>
	</g>
</g>
<g>
	<g>
		<circle class="bg-hexagon" cx="1980.7" cy="-194.8" r="3.8"></circle>
		<circle class="bg-hexagon" cx="1940.9" cy="-217.7" r="3.8"></circle>
		
			<rect x="1938.7" y="-206.5" transform="matrix(0.8665 0.4992 -0.4992 0.8665 158.9982 -1006.5212)" class="bg-hexagon" width="45" height="1"></rect>
	</g>
</g>
<g>
	<g>
		<circle class="bg-hexagon" cx="1901.1" cy="-194.3" r="3.8"></circle>
		<circle class="bg-hexagon" cx="1981.4" cy="-148.9" r="3.8"></circle>
		<circle class="bg-hexagon" cx="1941.2" cy="-125.7" r="3.8"></circle>
		<circle class="bg-hexagon" cx="1901.4" cy="-148.7" r="3.8"></circle>
		
			<rect x="1899.2" y="-207.1" transform="matrix(0.8651 -0.5016 0.5016 0.8651 362.8612 936.0709)" class="bg-hexagon" width="45" height="1"></rect>
		
			<rect x="1899.2" y="-137.5" transform="matrix(0.8665 0.4992 -0.4992 0.8665 188.1843 -977.5845)" class="bg-hexagon" width="45" height="1"></rect>
		
			<rect x="1939.3" y="-138" transform="matrix(0.8651 -0.5016 0.5016 0.8651 333.6017 965.494)" class="bg-hexagon" width="45" height="1"></rect>
		
			<rect x="1880.6" y="-172.4" transform="matrix(2.044091e-003 1 -1 2.044091e-003 1725.3148 -2072.658)" class="bg-hexagon" width="41.1" height="1"></rect>
		
			<rect x="1960.9" y="-172.1" transform="matrix(2.044091e-003 1 -1 2.044091e-003 1805.2157 -2152.1563)" class="bg-hexagon" width="39.9" height="1"></rect>
	</g>
</g>
<g>
	<g>
		
			<rect x="1860.9" y="138" transform="matrix(0.8651 -0.5016 0.5016 0.8651 184.6015 963.3941)" class="bg-hexagon" width="45" height="1"></rect>
		
			<rect x="1922.7" y="172.9" transform="matrix(2.044091e-003 1 -1 2.044091e-003 2112.0457 -1769.5978)" class="bg-hexagon" width="39.9" height="1"></rect>
	</g>
</g>
<g>
	<g>
		<circle class="bg-hexagon" cx="1862.7" cy="150.9" r="3.8"></circle>
		<circle class="bg-hexagon" cx="1782.8" cy="151.1" r="3.8"></circle>
		<circle class="bg-hexagon" cx="1822.9" cy="127.6" r="3.8"></circle>
		<circle class="bg-hexagon" cx="1863.2" cy="196.6" r="3.8"></circle>
		<circle class="bg-hexagon" cx="1822.9" cy="219.7" r="3.8"></circle>
		<circle class="bg-hexagon" cx="1783.2" cy="196.7" r="3.8"></circle>
		
			<rect x="1780.9" y="138.4" transform="matrix(0.8651 -0.5016 0.5016 0.8651 173.633 923.3266)" class="bg-hexagon" width="45" height="1"></rect>
		
			<rect x="1821.1" y="139.1" transform="matrix(0.8665 0.4992 -0.4992 0.8665 315.807 -901.6608)" class="bg-hexagon" width="45" height="1"></rect>
		
			<rect x="1780.9" y="207.9" transform="matrix(0.8665 0.4992 -0.4992 0.8665 344.8104 -872.441)" class="bg-hexagon" width="45" height="1"></rect>
		
			<rect x="1821.1" y="207.4" transform="matrix(0.8651 -0.5016 0.5016 0.8651 144.4103 952.7864)" class="bg-hexagon" width="45" height="1"></rect>
		
			<rect x="1762.3" y="173" transform="matrix(2.044091e-003 1 -1 2.044091e-003 1952.6714 -1609.6614)" class="bg-hexagon" width="41.1" height="1"></rect>
		
			<rect x="1842.7" y="173.3" transform="matrix(2.044091e-003 1 -1 2.044091e-003 2032.6718 -1689.26)" class="bg-hexagon" width="39.9" height="1"></rect>
	</g>
</g>
<g>
	<g>
		
			<rect x="1861.4" y="207.7" transform="matrix(0.8665 0.4992 -0.4992 0.8665 355.4474 -912.6108)" class="bg-hexagon" width="45" height="1"></rect>
		
			<rect x="1821.3" y="276.7" transform="matrix(0.8665 0.4992 -0.4992 0.8665 384.5239 -883.391)" class="bg-hexagon" width="45" height="1"></rect>
		
			<rect x="1883.1" y="242" transform="matrix(2.044091e-003 1 -1 2.044091e-003 2141.6626 -1661.038)" class="bg-hexagon" width="39.9" height="1"></rect>
	</g>
</g>
<g>
	<g>
		<circle class="bg-hexagon" cx="1743.3" cy="220.1" r="3.8"></circle>
		<circle class="bg-hexagon" cx="1823.7" cy="265.6" r="3.8"></circle>
		<circle class="bg-hexagon" cx="1783.4" cy="288.7" r="3.8"></circle>
		<circle class="bg-hexagon" cx="1743.7" cy="265.7" r="3.8"></circle>
		
			<rect x="1741.4" y="207.4" transform="matrix(0.8651 -0.5016 0.5016 0.8651 133.6803 912.8313)" class="bg-hexagon" width="45" height="1"></rect>
		
			<rect x="1741.4" y="276.9" transform="matrix(0.8665 0.4992 -0.4992 0.8665 373.9966 -843.5043)" class="bg-hexagon" width="45" height="1"></rect>
		
			<rect x="1781.6" y="276.4" transform="matrix(0.8651 -0.5016 0.5016 0.8651 104.4575 942.291)" class="bg-hexagon" width="45" height="1"></rect>
		
			<rect x="1722.7" y="242" transform="matrix(2.044091e-003 1 -1 2.044091e-003 1982.2561 -1501.2688)" class="bg-hexagon" width="41.1" height="1"></rect>
		
			<rect x="1803.2" y="242.3" transform="matrix(2.044091e-003 1 -1 2.044091e-003 2062.2563 -1580.8674)" class="bg-hexagon" width="39.9" height="1"></rect>
	</g>
</g>
<g>
	<g>
		<circle class="bg-hexagon" cx="1982.8" cy="219.6" r="3.8"></circle>
		<circle class="bg-hexagon" cx="1903" cy="219.8" r="3.8"></circle>
		<circle class="bg-hexagon" cx="1943.1" cy="196.3" r="3.8"></circle>
		<circle class="bg-hexagon" cx="1983.4" cy="265.2" r="3.8"></circle>
		<circle class="bg-hexagon" cx="1943.1" cy="288.4" r="3.8"></circle>
		<circle class="bg-hexagon" cx="1903.3" cy="265.4" r="3.8"></circle>
		
			<rect x="1901.2" y="207.1" transform="matrix(0.8651 -0.5016 0.5016 0.8651 155.3936 992.9333)" class="bg-hexagon" width="45" height="1"></rect>
		
			<rect x="1941.2" y="207.7" transform="matrix(0.8665 0.4992 -0.4992 0.8665 366.1227 -952.4833)" class="bg-hexagon" width="45" height="1"></rect>
		
			<rect x="1941.3" y="276.2" transform="matrix(0.8651 -0.5016 0.5016 0.8651 126.1341 1022.3564)" class="bg-hexagon" width="45" height="1"></rect>
		
			<rect x="1962.9" y="241.9" transform="matrix(2.044091e-003 1 -1 2.044091e-003 2221.2854 -1740.9376)" class="bg-hexagon" width="39.9" height="1"></rect>
	</g>
</g>
<g>
	<g>
		<circle class="bg-hexagon" cx="1863.3" cy="288.9" r="3.8"></circle>
		<circle class="bg-hexagon" cx="1863.6" cy="334.5" r="3.8"></circle>
		
			<rect x="1861.4" y="276.2" transform="matrix(0.8651 -0.5016 0.5016 0.8651 115.3477 982.2912)" class="bg-hexagon" width="45" height="1"></rect>
		
			<rect x="1901.4" y="276.8" transform="matrix(0.8665 0.4992 -0.4992 0.8665 395.2882 -923.3896)" class="bg-hexagon" width="45" height="1"></rect>
		
			<rect x="1861.3" y="345.8" transform="matrix(0.8665 0.4992 -0.4992 0.8665 424.3647 -894.17)" class="bg-hexagon" width="45" height="1"></rect>
		
			<rect x="1901.5" y="345.3" transform="matrix(0.8651 -0.5016 0.5016 0.8651 86.0881 1011.7143)" class="bg-hexagon" width="45" height="1"></rect>
		
			<rect x="1842.7" y="310.8" transform="matrix(2.044091e-003 1 -1 2.044091e-003 2170.7505 -1552.5791)" class="bg-hexagon" width="41.1" height="1"></rect>
		
			<rect x="1923.2" y="311.1" transform="matrix(2.044091e-003 1 -1 2.044091e-003 2250.751 -1632.1779)" class="bg-hexagon" width="39.9" height="1"></rect>
	</g>
</g>
<g>
	<g>
		<circle class="bg-hexagon" cx="1983.6" cy="357.6" r="3.8"></circle>
		<circle class="bg-hexagon" cx="1903.8" cy="357.7" r="3.8"></circle>
		<circle class="bg-hexagon" cx="1943.8" cy="334.3" r="3.8"></circle>
		<circle class="bg-hexagon" cx="1984.1" cy="403.2" r="3.8"></circle>
		<circle class="bg-hexagon" cx="1943.8" cy="426.3" r="3.8"></circle>
		<circle class="bg-hexagon" cx="1904.1" cy="403.4" r="3.8"></circle>
		
			<rect x="1901.9" y="345" transform="matrix(0.8651 -0.5016 0.5016 0.8651 86.2969 1011.8787)" class="bg-hexagon" width="45" height="1"></rect>
		
			<rect x="1942" y="345.6" transform="matrix(0.8665 0.4992 -0.4992 0.8665 435.0476 -934.4374)" class="bg-hexagon" width="45" height="1"></rect>
		
			<rect x="1901.9" y="414.6" transform="matrix(0.8665 0.4992 -0.4992 0.8665 464.1241 -905.2178)" class="bg-hexagon" width="45" height="1"></rect>
		
			<rect x="1942" y="414.1" transform="matrix(0.8651 -0.5016 0.5016 0.8651 57.0373 1041.3019)" class="bg-hexagon" width="45" height="1"></rect>
		
			<rect x="1883.3" y="379.7" transform="matrix(2.044091e-003 1 -1 2.044091e-003 2280.0764 -1524.4219)" class="bg-hexagon" width="41.1" height="1"></rect>
		
			<rect x="1963.6" y="379.9" transform="matrix(2.044091e-003 1 -1 2.044091e-003 2359.9771 -1603.9203)" class="bg-hexagon" width="39.9" height="1"></rect>
	</g>
</g>
<g>
	<g>
		<circle class="bg-hexagon" cx="1822.3" cy="81.8" r="3.8"></circle>
		<circle class="bg-hexagon" cx="1782.6" cy="58.8" r="3.8"></circle>
		
			<rect x="1780.4" y="70" transform="matrix(0.8665 0.4992 -0.4992 0.8665 275.9006 -890.5623)" class="bg-hexagon" width="45" height="1"></rect>
		
			<rect x="1820.5" y="69.5" transform="matrix(0.8651 -0.5016 0.5016 0.8651 213.505 933.8956)" class="bg-hexagon" width="45" height="1"></rect>
		
			<rect x="1761.7" y="35.1" transform="matrix(2.044091e-003 1 -1 2.044091e-003 1814.1986 -1746.6747)" class="bg-hexagon" width="41.1" height="1"></rect>
	</g>
</g>
<g>
	<g>
		<circle class="bg-hexagon" cx="1823.7" cy="357.8" r="3.8"></circle>
		<circle class="bg-hexagon" cx="1783.9" cy="334.8" r="3.8"></circle>
		
			<rect x="1781.7" y="346.1" transform="matrix(0.8665 0.4992 -0.4992 0.8665 413.8845 -854.3918)" class="bg-hexagon" width="45" height="1"></rect>
		
			<rect x="1821.8" y="345.6" transform="matrix(0.8651 -0.5016 0.5016 0.8651 75.2088 971.7864)" class="bg-hexagon" width="45" height="1"></rect>
		
			<rect x="1763" y="311.2" transform="matrix(2.044091e-003 1 -1 2.044091e-003 2091.5793 -1472.509)" class="bg-hexagon" width="41.1" height="1"></rect>
		<circle class="bg-hexagon" cx="1863.4" cy="426.8" r="3.8"></circle>
		
			<rect x="1821.4" y="415" transform="matrix(0.8665 0.4992 -0.4992 0.8665 453.5956 -865.0009)" class="bg-hexagon" width="45" height="1"></rect>
		
			<rect x="1861.6" y="414.5" transform="matrix(0.8651 -0.5016 0.5016 0.8651 46.0001 1001.0542)" class="bg-hexagon" width="45" height="1"></rect>
	</g>
</g>
<g>
	<g>
		<circle class="bg-hexagon" cx="1744.1" cy="357.7" r="3.8"></circle>
		<circle class="bg-hexagon" cx="1824.4" cy="403.2" r="3.8"></circle>
		<circle class="bg-hexagon" cx="1784.2" cy="426.3" r="3.8"></circle>
		<circle class="bg-hexagon" cx="1744.4" cy="403.4" r="3.8"></circle>
		<rect x="1742.2" y="345" transform="matrix(0.8651 -0.5016 0.5016 0.8651 64.7691 931.7991)" class="bg-hexagon" width="45" height="1"></rect>
		
			<rect x="1742.2" y="414.6" transform="matrix(0.8665 0.4992 -0.4992 0.8665 442.8182 -825.5234)" class="bg-hexagon" width="45" height="1"></rect>
		
			<rect x="1782.3" y="414.1" transform="matrix(0.8651 -0.5016 0.5016 0.8651 35.5096 961.222)" class="bg-hexagon" width="45" height="1"></rect>
		
			<rect x="1723.6" y="379.7" transform="matrix(2.044091e-003 1 -1 2.044091e-003 2120.7637 -1364.7219)" class="bg-hexagon" width="41.1" height="1"></rect>
		
			<rect x="1804" y="379.9" transform="matrix(2.044091e-003 1 -1 2.044091e-003 2200.5645 -1444.3201)" class="bg-hexagon" width="39.9" height="1"></rect>
	</g>
</g>
</svg>